<svg xmlns="http://www.w3.org/2000/svg" xmlns:xlink="http://www.w3.org/1999/xlink" width="500" zoomAndPan="magnify" viewBox="0 0 375 374.999991" height="500" preserveAspectRatio="xMidYMid meet" version="1.0"><defs><g/><clipPath id="1979985394"><path d="M 187.5 0 C 83.945312 0 0 83.945312 0 187.5 C 0 291.054688 83.945312 375 187.5 375 C 291.054688 375 375 291.054688 375 187.5 C 375 83.945312 291.054688 0 187.5 0 Z M 187.5 0 " clip-rule="nonzero"/></clipPath></defs><g clip-path="url(#1979985394)"><rect x="-37.5" width="450" fill="#273ed8" y="-37.499999" height="449.999989" fill-opacity="1"/></g><g fill="#ffffff" fill-opacity="1"><g transform="translate(25.82474, 186.690777)"><g><path d="M 26.359375 0.5 C 25.359375 0.5 24.582031 0.390625 24.03125 0.171875 L 17.359375 0.171875 L 11.015625 -1.328125 L 10.515625 -2.5 L 10.515625 -4.171875 L 10.34375 -8.671875 C 10.125 -10.671875 10.015625 -12.394531 10.015625 -13.84375 L 9.84375 -26.53125 C 9.726562 -27.75 9.671875 -29.414062 9.671875 -31.53125 C 9.671875 -36.644531 9.835938 -41.59375 10.171875 -46.375 C 10.398438 -49.488281 10.515625 -54.5 10.515625 -61.40625 C 10.515625 -62.507812 10.398438 -63.453125 10.171875 -64.234375 L 10.171875 -65.90625 L 10.015625 -66.90625 C 10.015625 -69.457031 10.179688 -71.957031 10.515625 -74.40625 L 10.671875 -83.25 L 10.515625 -87.265625 L 10.515625 -91.09375 C 10.179688 -91.425781 10.015625 -91.816406 10.015625 -92.265625 C 10.015625 -93.929688 11.347656 -95.15625 14.015625 -95.9375 C 15.566406 -96.382812 17.515625 -96.609375 19.859375 -96.609375 L 44.21875 -96.609375 L 55.5625 -96.4375 C 55.5625 -96.4375 55.644531 -96.378906 55.8125 -96.265625 C 55.976562 -96.160156 56.171875 -95.992188 56.390625 -95.765625 C 57.285156 -94.878906 58.175781 -93.710938 59.0625 -92.265625 C 60.0625 -90.597656 60.894531 -88.816406 61.5625 -86.921875 C 62.34375 -84.703125 63.84375 -80.8125 66.0625 -75.25 C 67.84375 -70.6875 69.347656 -67.070312 70.578125 -64.40625 C 71.460938 -61.507812 72.460938 -60.0625 73.578125 -60.0625 C 74.578125 -60.0625 75.351562 -60.785156 75.90625 -62.234375 C 76.132812 -62.453125 76.472656 -63.175781 76.921875 -64.40625 L 79.578125 -70.578125 C 79.804688 -71.023438 80.585938 -72.691406 81.921875 -75.578125 C 82.253906 -76.140625 83.195312 -78.144531 84.75 -81.59375 L 87.265625 -86.921875 C 87.484375 -87.585938 87.8125 -88.421875 88.25 -89.421875 C 88.695312 -90.429688 89.203125 -91.378906 89.765625 -92.265625 C 90.878906 -94.046875 91.769531 -95.210938 92.4375 -95.765625 C 92.65625 -96.210938 92.988281 -96.4375 93.4375 -96.4375 L 104.78125 -96.609375 L 134.46875 -96.609375 C 134.914062 -96.492188 135.921875 -96.4375 137.484375 -96.4375 C 137.585938 -96.4375 137.804688 -95.710938 138.140625 -94.265625 C 138.472656 -88.585938 138.640625 -84.023438 138.640625 -80.578125 C 138.867188 -76.359375 138.984375 -69.96875 138.984375 -61.40625 L 138.984375 -53.0625 C 138.984375 -48.050781 138.535156 -40.875 137.640625 -31.53125 L 137.640625 -26.53125 C 137.753906 -25.082031 137.8125 -23.078125 137.8125 -20.515625 L 137.984375 -13.515625 C 138.085938 -12.179688 138.140625 -10.398438 138.140625 -8.171875 C 138.140625 -6.171875 138.195312 -4.835938 138.3125 -4.171875 L 138.3125 -2.5 L 137.8125 -1.328125 L 131.46875 0.171875 L 124.96875 0.171875 C 124.300781 0.390625 123.46875 0.5 122.46875 0.5 C 118.125 0.5 113.671875 0.304688 109.109375 -0.078125 C 104.554688 -0.472656 101.722656 -0.722656 100.609375 -0.828125 L 99.9375 -0.671875 L 99.109375 -0.671875 C 98.441406 -0.671875 98.109375 -1.726562 98.109375 -3.84375 C 97.546875 -6.726562 97.265625 -13.125 97.265625 -23.03125 C 97.046875 -25.8125 96.9375 -29.59375 96.9375 -34.375 C 96.9375 -35.144531 96.546875 -35.53125 95.765625 -35.53125 C 95.429688 -35.53125 95.097656 -35.085938 94.765625 -34.203125 C 93.097656 -30.203125 92.097656 -27.695312 91.765625 -26.6875 L 90.59375 -23.1875 L 89.265625 -20.515625 C 87.265625 -16.066406 85.09375 -12.617188 82.75 -10.171875 C 81.300781 -8.734375 79.800781 -8.015625 78.25 -8.015625 L 73.078125 -8.015625 C 71.628906 -8.015625 70.570312 -8.066406 69.90625 -8.171875 C 68.6875 -8.171875 67.796875 -8.226562 67.234375 -8.34375 C 63.347656 -14.351562 59.734375 -20.972656 56.390625 -28.203125 C 55.941406 -29.535156 55.523438 -30.644531 55.140625 -31.53125 C 54.753906 -32.425781 54.445312 -33.207031 54.21875 -33.875 C 53.445312 -34.976562 53.0625 -35.53125 53.0625 -35.53125 C 52.28125 -35.53125 51.890625 -35.144531 51.890625 -34.375 L 51.890625 -27.703125 C 51.890625 -20.910156 51.832031 -16.015625 51.71875 -13.015625 C 51.71875 -8.234375 51.382812 -4.671875 50.71875 -2.328125 C 50.601562 -1.890625 50.460938 -1.503906 50.296875 -1.171875 C 50.128906 -0.835938 49.9375 -0.671875 49.71875 -0.671875 L 48.890625 -0.671875 L 48.21875 -0.828125 C 47.21875 -0.722656 44.460938 -0.472656 39.953125 -0.078125 C 35.453125 0.304688 30.921875 0.5 26.359375 0.5 Z M 26.359375 0.5 "/></g></g></g><g fill="#ffffff" fill-opacity="1"><g transform="translate(167.425308, 144.748261)"><g><path d="M 8.53125 1.15625 C 7.46875 1.15625 6.785156 0.0859375 6.484375 -2.046875 C 6.304688 -2.929688 6.21875 -3.734375 6.21875 -4.453125 C 6.21875 -5.398438 6.191406 -5.988281 6.140625 -6.21875 C 6.078125 -7.9375 5.925781 -10.664062 5.6875 -14.40625 L 5.421875 -17.78125 C 5.066406 -23 4.890625 -26.851562 4.890625 -29.34375 L 4.890625 -50.9375 C 4.890625 -51.414062 5.421875 -51.773438 6.484375 -52.015625 C 7.078125 -52.191406 7.910156 -52.28125 8.984375 -52.28125 C 9.691406 -52.28125 10.457031 -52.234375 11.28125 -52.140625 C 12.113281 -52.054688 12.738281 -52.015625 13.15625 -52.015625 C 14.039062 -51.890625 15.4375 -51.828125 17.34375 -51.828125 L 17.6875 -52.09375 L 21.609375 -52.09375 C 21.785156 -51.914062 21.992188 -51.828125 22.234375 -51.828125 L 22.578125 -51.828125 C 22.640625 -51.890625 22.789062 -51.921875 23.03125 -51.921875 C 23.144531 -51.984375 23.320312 -52.015625 23.5625 -52.015625 C 23.625 -52.066406 23.679688 -52.09375 23.734375 -52.09375 C 23.796875 -52.09375 23.828125 -52.09375 23.828125 -52.09375 C 24.003906 -52.09375 24.210938 -52.046875 24.453125 -51.953125 C 24.691406 -51.867188 24.867188 -51.828125 24.984375 -51.828125 L 31.5625 -51.828125 L 31.828125 -36.546875 C 31.828125 -36.484375 31.78125 -36.285156 31.6875 -35.953125 C 31.601562 -35.628906 31.53125 -35.203125 31.46875 -34.671875 C 31.289062 -32.535156 31.203125 -30.847656 31.203125 -29.609375 L 31.203125 -12.265625 L 30.9375 -8.890625 C 30.757812 -7.410156 30.703125 -6.195312 30.765625 -5.25 C 30.765625 -4 30.71875 -3.003906 30.625 -2.265625 C 30.539062 -1.523438 30.347656 -0.945312 30.046875 -0.53125 C 29.691406 -0.113281 29.128906 0.09375 28.359375 0.09375 L 28.265625 0 L 28 -0.09375 C 27.882812 -0.09375 27.828125 -0.0625 27.828125 0 L 27.390625 0 C 27.023438 0.113281 26.816406 0.203125 26.765625 0.265625 C 26.460938 0.265625 25.78125 0.175781 24.71875 0 L 23.46875 -0.09375 C 23.175781 -0.09375 23 0.0234375 22.9375 0.265625 L 15.03125 0.265625 L 12.71875 0.71875 L 10.578125 0.984375 Z M 8.53125 1.15625 "/></g></g></g><g fill="#ffffff" fill-opacity="1"><g transform="translate(199.469352, 176.13798)"><g><path d="M 44.90625 2.671875 C 40 2.671875 35.910156 2.445312 32.640625 2 C 28.410156 1.40625 24.585938 0.332031 21.171875 -1.21875 C 20.722656 -1.445312 20.070312 -1.800781 19.21875 -2.28125 C 18.363281 -2.769531 17.640625 -3.234375 17.046875 -3.671875 C 14.597656 -5.753906 12.59375 -8.097656 11.03125 -10.703125 C 9.769531 -12.035156 8.617188 -13.890625 7.578125 -16.265625 C 5.566406 -21.460938 4.5625 -27.664062 4.5625 -34.875 C 4.5625 -43.34375 6.3125 -50.769531 9.8125 -57.15625 C 12.851562 -63.25 16.914062 -68.019531 22 -71.46875 C 27.09375 -74.925781 32.867188 -76.878906 39.328125 -77.328125 L 40.671875 -77.4375 L 42.125 -77.4375 C 47.914062 -77.4375 54.15625 -76.25 60.84375 -73.875 C 61.4375 -73.570312 62.734375 -72.972656 64.734375 -72.078125 C 66.742188 -71.191406 68.601562 -70.191406 70.3125 -69.078125 L 68.296875 -54.59375 L 61.734375 -56.265625 C 59.347656 -56.859375 57.117188 -57.15625 55.046875 -57.15625 C 50.878906 -57.15625 47.757812 -55.597656 45.6875 -52.484375 C 43.457031 -49.210938 42.34375 -43.898438 42.34375 -36.546875 C 42.34375 -34.171875 42.453125 -32.5 42.671875 -31.53125 C 42.972656 -26.851562 44.015625 -23.398438 45.796875 -21.171875 C 47.503906 -19.234375 49.546875 -18.265625 51.921875 -18.265625 C 54.148438 -18.265625 56.640625 -18.972656 59.390625 -20.390625 C 61.765625 -21.503906 64.363281 -23.023438 67.1875 -24.953125 L 68.296875 -6.6875 C 65.398438 -4.007812 61.6875 -1.742188 57.15625 0.109375 C 52.851562 1.816406 48.769531 2.671875 44.90625 2.671875 Z M 44.90625 2.671875 "/></g></g></g><g fill="#ffffff" fill-opacity="1"><g transform="translate(275.587449, 181.996932)"><g><path d="M 49.1875 0 C 40.363281 0 33.941406 -0.0390625 29.921875 -0.125 C 26.242188 -0.125 23.421875 -0.164062 21.453125 -0.25 L 10.921875 -0.390625 C 10.148438 -0.390625 9.421875 -0.726562 8.734375 -1.40625 C 8.046875 -2.09375 7.703125 -2.820312 7.703125 -3.59375 L 7.703125 -44.171875 L 7.578125 -54.703125 C 7.578125 -58.210938 7.660156 -62.625 7.828125 -67.9375 C 7.828125 -69.050781 7.957031 -71.921875 8.21875 -76.546875 L 8.21875 -79.5 C 8.21875 -81.894531 8.6875 -83.816406 9.625 -85.265625 C 10.0625 -86.035156 10.75 -86.421875 11.6875 -86.421875 C 15.882812 -86.421875 20.460938 -86.335938 25.421875 -86.171875 C 26.109375 -86.085938 27.09375 -86.046875 28.375 -86.046875 C 31.207031 -86.046875 33.304688 -86.003906 34.671875 -85.921875 L 41.609375 -85.921875 C 41.953125 -85.921875 42.957031 -85.921875 44.625 -85.921875 C 46.289062 -85.921875 47.597656 -85.703125 48.546875 -85.265625 C 50.085938 -84.410156 50.859375 -82.441406 50.859375 -79.359375 L 50.734375 -78.34375 C 50.734375 -78.082031 50.644531 -77.4375 50.46875 -76.40625 C 50.207031 -75.125 50.078125 -74.179688 50.078125 -73.578125 C 50.078125 -72.640625 50.207031 -71.441406 50.46875 -69.984375 C 50.644531 -68.960938 50.734375 -68.28125 50.734375 -67.9375 L 50.859375 -67.171875 L 50.859375 -31.328125 C 50.859375 -30.648438 51.242188 -30.222656 52.015625 -30.046875 C 52.265625 -29.960938 52.820312 -29.921875 53.6875 -29.921875 L 63.0625 -29.921875 C 65.363281 -30.003906 68.867188 -30.046875 73.578125 -30.046875 C 74.523438 -30.046875 75.296875 -29.765625 75.890625 -29.203125 C 76.492188 -28.648438 76.796875 -28.078125 76.796875 -27.484375 L 76.796875 -2.703125 C 76.796875 -2.015625 76.453125 -1.457031 75.765625 -1.03125 C 74.992188 -0.6875 74.097656 -0.472656 73.078125 -0.390625 C 71.960938 -0.128906 70.207031 0 67.8125 0 Z M 49.1875 0 "/></g></g></g><g fill="#ffffff" fill-opacity="1"><g transform="translate(31.735551, 277.439482)"><g><path d="M 7.734375 0.109375 C 6.296875 0.109375 5.726562 -1.175781 6.03125 -3.75 C 6.03125 -4.664062 6.21875 -5.691406 6.59375 -6.828125 C 6.59375 -7.359375 6.628906 -7.789062 6.703125 -8.125 C 6.785156 -8.46875 6.828125 -8.753906 6.828125 -8.984375 C 8.566406 -17.253906 10.5 -25.410156 12.625 -33.453125 L 20.359375 -63.703125 C 20.359375 -63.859375 20.472656 -64.050781 20.703125 -64.28125 C 20.929688 -64.507812 21.160156 -64.695312 21.390625 -64.84375 L 22.1875 -64.84375 C 23.09375 -64.84375 23.8125 -64.957031 24.34375 -65.1875 C 24.800781 -65.257812 25.597656 -65.296875 26.734375 -65.296875 C 28.554688 -65.296875 29.921875 -65.257812 30.828125 -65.1875 C 32.191406 -64.957031 33.597656 -64.84375 35.046875 -64.84375 L 40.953125 -64.953125 C 41.554688 -65.109375 42.28125 -65.1875 43.125 -65.1875 L 48.125 -65.421875 L 51.875 -65.421875 C 53.3125 -65.421875 54.71875 -65.378906 56.09375 -65.296875 L 59.265625 -65.296875 C 60.023438 -65.222656 61.128906 -65.1875 62.578125 -65.1875 L 66.890625 -65.1875 C 67.117188 -65.1875 67.347656 -65.144531 67.578125 -65.0625 C 67.804688 -64.988281 67.992188 -64.914062 68.140625 -64.84375 C 68.441406 -64.695312 68.820312 -64.625 69.28125 -64.625 L 70.3125 -64.625 C 70.84375 -64.238281 71.109375 -63.859375 71.109375 -63.484375 L 79.1875 -33.453125 C 81.6875 -23.816406 83.65625 -15.660156 85.09375 -8.984375 C 85.09375 -8.609375 85.207031 -7.890625 85.4375 -6.828125 C 85.738281 -5.304688 85.890625 -4.09375 85.890625 -3.1875 C 85.890625 -2.65625 85.816406 -1.9375 85.671875 -1.03125 C 85.285156 -0.269531 84.753906 0.109375 84.078125 0.109375 L 82.828125 0.109375 C 81.835938 0.109375 81.078125 0.0703125 80.546875 0 L 73.71875 0 C 73.1875 0 72.882812 -0.0351562 72.8125 -0.109375 L 66.546875 -0.109375 L 66.4375 -0.34375 C 66.289062 -0.488281 66.0625 -0.5625 65.75 -0.5625 L 65.421875 -0.34375 C 65.421875 -0.1875 65.34375 -0.109375 65.1875 -0.109375 L 64.046875 -0.109375 C 63.671875 -0.265625 62.988281 -0.34375 62 -0.34375 C 60.175781 -0.488281 58.660156 -0.5625 57.453125 -0.5625 C 56.617188 -2.3125 55.632812 -6.144531 54.5 -12.0625 C 52.90625 -11.832031 51.082031 -11.71875 49.03125 -11.71875 L 43.234375 -11.71875 C 42.929688 -10.582031 42.738281 -9.632812 42.65625 -8.875 C 42.582031 -8.5 42.28125 -7.207031 41.75 -5 C 41.21875 -2.800781 40.722656 -1.320312 40.265625 -0.5625 L 39.59375 -0.34375 C 39.363281 -0.269531 39.171875 -0.210938 39.015625 -0.171875 C 38.867188 -0.128906 38.796875 -0.109375 38.796875 -0.109375 L 38.5625 -0.109375 C 38.113281 -0.109375 37.8125 -0.1875 37.65625 -0.34375 C 37.351562 -0.488281 37.164062 -0.5625 37.09375 -0.5625 L 32.765625 -0.34375 L 29.578125 -0.34375 C 29.203125 -0.269531 28.898438 -0.210938 28.671875 -0.171875 C 28.441406 -0.128906 28.289062 -0.109375 28.21875 -0.109375 L 18.203125 -0.109375 C 17.515625 -0.0351562 16.113281 0 14 0 L 11.265625 0 C 10.804688 0.0703125 10.082031 0.109375 9.09375 0.109375 Z M 53.46875 -24.234375 C 53.007812 -26.804688 52.742188 -28.320312 52.671875 -28.78125 L 51.765625 -34.25 C 51.609375 -35.3125 51.453125 -36.273438 51.296875 -37.140625 C 51.148438 -38.015625 51.039062 -38.832031 50.96875 -39.59375 C 50.738281 -40.5 50.566406 -41.347656 50.453125 -42.140625 C 50.335938 -42.941406 50.207031 -43.6875 50.0625 -44.375 C 49.976562 -44.820312 49.898438 -45.40625 49.828125 -46.125 C 49.753906 -46.851562 49.640625 -47.367188 49.484375 -47.671875 L 49.265625 -49.03125 C 49.265625 -49.332031 49.1875 -49.597656 49.03125 -49.828125 L 48.921875 -50.515625 C 48.765625 -50.054688 48.6875 -49.828125 48.6875 -49.828125 L 48.6875 -49.03125 C 48.6875 -48.957031 48.648438 -48.820312 48.578125 -48.625 C 48.503906 -48.4375 48.425781 -48.117188 48.34375 -47.671875 C 48.269531 -47.285156 48.195312 -46.804688 48.125 -46.234375 C 48.050781 -45.671875 47.9375 -45.050781 47.78125 -44.375 L 46.984375 -39.703125 L 46.078125 -34.46875 L 45.734375 -31.96875 C 45.578125 -31.363281 45.425781 -30.378906 45.28125 -29.015625 C 44.59375 -25.597656 44.289062 -24.039062 44.375 -24.34375 L 49.375 -24.34375 C 49.445312 -24.414062 49.554688 -24.507812 49.703125 -24.625 C 49.859375 -24.738281 49.976562 -24.796875 50.0625 -24.796875 L 50.390625 -24.796875 C 50.773438 -24.796875 51.097656 -24.757812 51.359375 -24.6875 C 51.628906 -24.613281 51.878906 -24.535156 52.109375 -24.453125 C 52.554688 -24.304688 53.007812 -24.234375 53.46875 -24.234375 Z M 53.46875 -24.234375 "/></g></g></g><g fill="#ffffff" fill-opacity="1"><g transform="translate(118.805793, 280.157536)"><g><path d="M 12.078125 1.640625 C 10.566406 1.640625 9.601562 0.128906 9.1875 -2.890625 C 8.9375 -4.148438 8.8125 -5.285156 8.8125 -6.296875 C 8.8125 -7.628906 8.769531 -8.46875 8.6875 -8.8125 C 8.59375 -11.238281 8.378906 -15.09375 8.046875 -20.375 L 7.671875 -25.15625 C 7.171875 -32.539062 6.921875 -37.992188 6.921875 -41.515625 L 6.921875 -72.078125 C 6.921875 -72.753906 7.675781 -73.257812 9.1875 -73.59375 C 10.019531 -73.84375 11.191406 -73.96875 12.703125 -73.96875 C 13.710938 -73.96875 14.800781 -73.90625 15.96875 -73.78125 C 17.144531 -73.65625 18.03125 -73.59375 18.625 -73.59375 C 19.875 -73.425781 21.84375 -73.34375 24.53125 -73.34375 L 25.03125 -73.71875 L 30.5625 -73.71875 C 30.820312 -73.46875 31.117188 -73.34375 31.453125 -73.34375 L 31.953125 -73.34375 C 32.035156 -73.425781 32.242188 -73.46875 32.578125 -73.46875 C 32.742188 -73.550781 33 -73.59375 33.34375 -73.59375 C 33.425781 -73.675781 33.507812 -73.71875 33.59375 -73.71875 C 33.675781 -73.71875 33.71875 -73.71875 33.71875 -73.71875 C 33.96875 -73.71875 34.257812 -73.65625 34.59375 -73.53125 C 34.925781 -73.40625 35.175781 -73.34375 35.34375 -73.34375 L 44.65625 -73.34375 L 45.03125 -51.703125 C 45.03125 -51.617188 44.96875 -51.34375 44.84375 -50.875 C 44.71875 -50.414062 44.613281 -49.8125 44.53125 -49.0625 C 44.28125 -46.039062 44.15625 -43.648438 44.15625 -41.890625 L 44.15625 -17.359375 L 43.78125 -12.578125 C 43.53125 -10.484375 43.445312 -8.765625 43.53125 -7.421875 C 43.53125 -5.660156 43.460938 -4.253906 43.328125 -3.203125 C 43.203125 -2.160156 42.929688 -1.34375 42.515625 -0.75 C 42.015625 -0.164062 41.21875 0.125 40.125 0.125 L 40 0 L 39.625 -0.125 C 39.457031 -0.125 39.375 -0.0820312 39.375 0 L 38.75 0 C 38.238281 0.164062 37.941406 0.289062 37.859375 0.375 C 37.441406 0.375 36.476562 0.25 34.96875 0 L 33.203125 -0.125 C 32.785156 -0.125 32.535156 0.0390625 32.453125 0.375 L 21.265625 0.375 L 17.984375 1 L 14.96875 1.390625 Z M 12.078125 1.640625 "/></g></g></g><g fill="#ffffff" fill-opacity="1"><g transform="translate(173.608017, 273.641044)"><g><path d="M 15.109375 0.25 C 14.566406 0.25 14.109375 0.191406 13.734375 0.078125 L 10.078125 0.078125 L 6.421875 -0.8125 L 6.171875 -1.46875 C 6.117188 -1.46875 6.09375 -1.765625 6.09375 -2.359375 C 5.988281 -3.984375 5.9375 -5.851562 5.9375 -7.96875 C 5.9375 -9.476562 5.878906 -10.691406 5.765625 -11.609375 C 5.765625 -13.128906 5.738281 -14.269531 5.6875 -15.03125 L 5.6875 -17.875 C 5.414062 -20.363281 5.253906 -23.097656 5.203125 -26.078125 C 5.148438 -29.054688 5.125 -31.953125 5.125 -34.765625 L 5.28125 -43.046875 C 5.332031 -43.972656 5.359375 -45.382812 5.359375 -47.28125 C 5.359375 -49.175781 5.332031 -50.582031 5.28125 -51.5 C 5.113281 -52.75 5.46875 -53.671875 6.34375 -54.265625 C 6.882812 -54.535156 7.828125 -54.671875 9.171875 -54.671875 C 11.179688 -54.671875 13.753906 -54.722656 16.890625 -54.828125 L 18.6875 -55 C 21.9375 -55.21875 23.96875 -55.328125 24.78125 -55.328125 C 25.53125 -55.328125 26.070312 -55.296875 26.40625 -55.234375 C 27.15625 -55.179688 27.664062 -55.070312 27.9375 -54.90625 C 28.207031 -54.75 28.460938 -54.476562 28.703125 -54.09375 C 28.953125 -53.71875 29.132812 -53.421875 29.25 -53.203125 C 29.894531 -52.335938 30.539062 -51.421875 31.1875 -50.453125 C 32.164062 -48.984375 32.953125 -47.84375 33.546875 -47.03125 L 38.90625 -38.828125 L 41.515625 -34.9375 C 41.515625 -36.34375 41.566406 -37.453125 41.671875 -38.265625 L 41.671875 -45.8125 L 41.921875 -51.578125 C 41.972656 -52.015625 42.023438 -52.3125 42.078125 -52.46875 C 42.128906 -52.632812 42.207031 -52.757812 42.3125 -52.84375 C 42.425781 -52.925781 42.507812 -52.992188 42.5625 -53.046875 C 43.21875 -53.585938 43.867188 -53.992188 44.515625 -54.265625 C 45.054688 -54.367188 45.488281 -54.421875 45.8125 -54.421875 L 51.421875 -54.421875 C 51.859375 -54.367188 52.617188 -54.34375 53.703125 -54.34375 C 54.890625 -54.34375 55.835938 -54.316406 56.546875 -54.265625 L 62.546875 -54.265625 C 63.953125 -54.265625 64.898438 -54.046875 65.390625 -53.609375 C 65.984375 -53.179688 66.28125 -52.234375 66.28125 -50.765625 L 66.203125 -49.953125 L 66.125 -48.65625 C 66.070312 -48.332031 66.046875 -47.898438 66.046875 -47.359375 L 66.046875 -45.734375 L 66.203125 -44.921875 L 66.203125 -42.328125 C 66.148438 -41.398438 66.125 -39.828125 66.125 -37.609375 L 66.125 -31.59375 C 66.070312 -30.1875 66.046875 -28.210938 66.046875 -25.671875 L 66.046875 -5.359375 L 65.71875 -2.28125 C 65.5 -1.03125 65.066406 -0.269531 64.421875 0 L 63.03125 0.078125 L 61.65625 0 L 47.03125 0 C 45.945312 0.101562 44.890625 -0.03125 43.859375 -0.40625 C 43.378906 -0.625 42.835938 -0.976562 42.234375 -1.46875 L 33.953125 -13.078125 C 33.953125 -13.128906 33.359375 -14.128906 32.171875 -16.078125 C 31.734375 -16.734375 31.328125 -17.304688 30.953125 -17.796875 C 30.835938 -18.003906 30.710938 -18.175781 30.578125 -18.3125 C 30.441406 -18.445312 30.347656 -18.515625 30.296875 -18.515625 C 29.804688 -18.515625 29.5625 -18.300781 29.5625 -17.875 L 29.5625 -16.078125 C 29.507812 -15.535156 29.484375 -14.644531 29.484375 -13.40625 L 29.484375 -7.15625 C 29.378906 -6.5 29.328125 -5.6875 29.328125 -4.71875 L 29.328125 -1.875 L 29.40625 -1.46875 C 29.40625 -1.03125 29.1875 -0.757812 28.75 -0.65625 C 28.476562 -0.4375 28.046875 -0.378906 27.453125 -0.484375 C 25.609375 -0.378906 24.148438 -0.269531 23.078125 -0.15625 C 22.421875 -0.101562 21.28125 -0.0234375 19.65625 0.078125 C 18.03125 0.191406 16.515625 0.25 15.109375 0.25 Z M 15.109375 0.25 "/></g></g></g><g fill="#ffffff" fill-opacity="1"><g transform="translate(247.375185, 281.065548)"><g><path d="M 17.75 0 C 17.320312 0 16.6875 -0.0625 15.84375 -0.1875 C 15 -0.3125 13.984375 -0.414062 12.796875 -0.5 L 10.140625 -1.140625 C 9.710938 -1.222656 9.394531 -1.328125 9.1875 -1.453125 C 8.976562 -1.578125 8.914062 -1.6875 9 -1.78125 C 9 -3.976562 8.875 -6.890625 8.625 -10.515625 C 8.625 -11.785156 8.578125 -12.90625 8.484375 -13.875 C 8.398438 -14.851562 8.316406 -15.679688 8.234375 -16.359375 L 7.984375 -21.796875 C 7.984375 -23.234375 7.898438 -25.050781 7.734375 -27.25 L 7.609375 -31.1875 C 7.609375 -34.394531 7.566406 -36.882812 7.484375 -38.65625 C 7.398438 -40.4375 7.359375 -44.15625 7.359375 -49.8125 C 7.359375 -55.144531 7.398438 -60.640625 7.484375 -66.296875 C 7.566406 -71.960938 7.816406 -77.328125 8.234375 -82.390625 C 8.234375 -83.328125 9.25 -84.085938 11.28125 -84.671875 C 12.550781 -84.847656 14.664062 -84.9375 17.625 -84.9375 C 24.46875 -84.9375 29.492188 -85.0625 32.703125 -85.3125 C 42.671875 -85.476562 50.191406 -85.5625 55.265625 -85.5625 L 60.84375 -85.5625 C 67.78125 -85.394531 73.101562 -85.144531 76.8125 -84.8125 C 78.164062 -84.8125 79.140625 -83.203125 79.734375 -79.984375 C 79.984375 -79.398438 80.28125 -77.878906 80.625 -75.421875 C 80.875 -74.160156 81.210938 -72.597656 81.640625 -70.734375 C 81.722656 -70.222656 81.742188 -69.734375 81.703125 -69.265625 C 81.660156 -68.804688 81.640625 -68.535156 81.640625 -68.453125 C 81.554688 -67.609375 81.09375 -67.1875 80.25 -67.1875 C 79.90625 -67.269531 79.394531 -67.3125 78.71875 -67.3125 C 75.164062 -67.3125 70.816406 -67.015625 65.671875 -66.421875 L 58.953125 -65.921875 C 56.160156 -65.578125 53.960938 -65.363281 52.359375 -65.28125 C 52.097656 -65.28125 51.757812 -64.773438 51.34375 -63.765625 C 51 -62.660156 50.617188 -60.125 50.203125 -56.15625 L 49.953125 -52.984375 C 49.953125 -51.890625 50.078125 -51.191406 50.328125 -50.890625 C 50.578125 -50.597656 51.125 -50.453125 51.96875 -50.453125 L 63.25 -50.453125 C 66.550781 -50.453125 70.3125 -50.238281 74.53125 -49.8125 L 76.0625 -49.8125 C 77.15625 -49.5625 77.832031 -49.140625 78.09375 -48.546875 C 78.425781 -48.046875 78.632812 -47.5 78.71875 -46.90625 L 79.234375 -35.625 L 79.234375 -35.234375 C 79.234375 -33.796875 77.710938 -32.953125 74.671875 -32.703125 C 72.890625 -32.285156 69.507812 -32.078125 64.53125 -32.078125 C 60.21875 -32.078125 57.425781 -32.117188 56.15625 -32.203125 C 53.707031 -32.203125 52.226562 -32.160156 51.71875 -32.078125 C 50.789062 -31.816406 50.195312 -31.328125 49.9375 -30.609375 C 49.6875 -29.890625 49.5625 -28.6875 49.5625 -27 C 49.5625 -25.90625 49.476562 -24.34375 49.3125 -22.3125 C 49.226562 -21.300781 49.1875 -19.695312 49.1875 -17.5 C 54.675781 -17.5 58.734375 -17.582031 61.359375 -17.75 C 64.234375 -18 68.289062 -18.125 73.53125 -18.125 C 73.863281 -18.125 74.195312 -17.828125 74.53125 -17.234375 C 74.957031 -16.390625 75.632812 -14.488281 76.5625 -11.53125 C 77.070312 -9.84375 77.582031 -7.734375 78.09375 -5.203125 C 78.257812 -4.609375 78.34375 -3.972656 78.34375 -3.296875 C 78.34375 -1.523438 77.5 -0.640625 75.8125 -0.640625 C 73.613281 -0.640625 70.65625 -0.550781 66.9375 -0.375 C 64.988281 -0.207031 61.945312 -0.125 57.8125 -0.125 C 48.9375 -0.125 42.257812 -0.0820312 37.78125 0 Z M 17.75 0 "/></g></g></g></svg>